<?xml version="1.0" encoding="UTF-8"?>
<svg id="_레이어_1" data-name="레이어 1" xmlns="http://www.w3.org/2000/svg" viewBox="0 0 517.54 517.54">
  <defs>
    <style>
      .cls-1 {
        fill: #e50012;
      }

      .cls-1, .cls-2 {
        stroke-width: 0px;
      }
    </style>
  </defs>
  <path class="cls-1" d="m322.11,125.93c-36.76-31.31-82.29-15.33-88.92-12.75-.32.12-.64.25-.96.37l.35-.76c14.21-19.8,65.68-17.7,65.68-17.7-63.12-18.87-98.6,27.25-98.6,27.25-33.85,39.75-12.42,89.75-12.42,89.75.28.77.7,1.28,1.01,2.04l-2.9-1.32c-19.8-14.21-17.7-65.68-17.7-65.68-18.87,63.12,27.25,98.6,27.25,98.6,39.75,33.85,89.75,12.42,89.75,12.42l-.12-.06c.65-.23,1.31-.45,1.96-.69l-.5,1.09c-14.21,19.8-65.68,17.7-65.68,17.7,63.12,18.87,98.6-27.25,98.6-27.25,23.65-27.78,20.32-60.55,16.16-77.78-.79-4.22-1.91-8.33-3.36-12.28,19.76,14.24,17.67,65.66,17.67,65.66,18.87-63.12-27.25-98.6-27.25-98.6Zm-62.01,118.34c-22.93-1.79-35.89-18.35-35.89-18.35-13.76-13.56-15.95-35.69-15.95-35.69l.13.12c-.15-1.59-.23-3.2-.23-4.82,0-.13,0-.25,0-.38-3.93,8.64-2.01,23.32-2.01,23.32,3.99,23.73,25.52,38.88,25.52,38.88-37.29-25.32-31.11-60.22-31.11-60.22,1.79-22.93,18.35-35.89,18.35-35.89,5.62-5.7,12.71-9.42,19.09-11.81,6.17-2.75,12.98-4.3,20.16-4.34-8.71-3.51-22.6-1.7-22.6-1.7-23.73,3.99-38.88,25.52-38.88,25.52,25.32-37.29,60.22-31.11,60.22-31.11,22.93,1.79,35.89,18.35,35.89,18.35,6.23,6.14,10.09,14.05,12.45,20.86,1.46,3.72,2.5,7.65,3.05,11.74.34,1.94.45,3.09.45,3.09l-.14-.14c.09,1.26.14,2.54.14,3.83,0,.41,0,.82-.02,1.23,4.33-8.53,2.32-23.96,2.32-23.96-3.99-23.73-25.52-38.88-25.52-38.88,37.29,25.32,31.11,60.22,31.11,60.22-1.79,22.93-18.35,35.89-18.35,35.89-8.11,8.23-19.28,12.32-26.95,14.28-.76.2-1.53.39-2.31.55-3.89.87-6.43,1.12-6.43,1.12l.18-.19c-1.43.12-2.87.19-4.32.19-.58,0-1.17-.01-1.74-.03,8.34,4.88,24.73,2.73,24.73,2.73,23.73-3.99,38.88-25.52,38.88-25.52-25.32,37.29-60.22,31.11-60.22,31.11Z"/>
  <path class="cls-1" d="m284.35,212.73c10.12-11.89,8.7-25.92,6.92-33.29-.34-1.81-.82-3.57-1.44-5.26,8.46,6.1,7.56,28.11,7.56,28.11,8.08-27.02-11.67-42.21-11.67-42.21-15.74-13.4-35.23-6.56-38.06-5.46-.14.05-.27.11-.41.16l.15-.33c6.08-8.47,28.12-7.58,28.12-7.58-27.02-8.08-42.21,11.67-42.21,11.67-14.49,17.02-5.32,38.42-5.32,38.42.12.33.3.55.43.87l-1.24-.57c-8.47-6.08-7.58-28.12-7.58-28.12-8.08,27.02,11.67,42.21,11.67,42.21,17.02,14.49,38.42,5.32,38.42,5.32l-.05-.02c.28-.1.56-.19.84-.3l-.21.47c-6.08,8.47-28.12,7.58-28.12,7.58,27.02,8.08,42.21-11.67,42.21-11.67Z"/>
  <path class="cls-2" d="m56.35,347.17v9.27c-6.78,0-10.13,3.12-10.13,30.63s3.35,30.71,10.13,30.71v9.2c-13.87,0-20.97-6.47-20.97-39.91s7.09-39.91,20.97-39.91Z"/>
  <path class="cls-2" d="m67.34,395.73h63.6v9.27h-26.58v18.63h-10.68v-18.63h-26.35v-9.27Zm3.59-43.96h56.43v9.27h-22.92c.86,10.99,11.22,17.15,23.54,19.33v9.28c-12.24-1.87-22.68-6.55-28.92-13.8-6.24,7.25-16.68,11.92-28.92,13.8v-9.28c12.24-2.18,22.6-8.34,23.46-19.33h-22.68v-9.27Z"/>
  <path class="cls-2" d="m141.93,426.99v-9.2c6.78,0,10.05-3.2,10.05-30.71s-3.27-30.63-10.05-30.63v-9.27c13.8,0,20.89,6.55,20.89,39.91s-7.09,39.91-20.89,39.91Z"/>
  <path class="cls-2" d="m202.96,359.65c0,12.63,5.85,18.32,14.97,20.97v9.43c-8.57-1.56-16.14-5.69-20.19-11.15-3.9,5.69-11.46,10.21-20.34,11.93v-9.35c9.43-2.88,14.89-9.74,14.89-21.82v-8.34h10.68v8.34Zm-19.72,48.72c0-5.14,2.65-8.81,6.63-11.22,5.61-3.43,13.87-4.44,21.51-4.44s15.98,1.01,21.51,4.44c4.05,2.42,6.7,6.08,6.7,11.22s-2.65,8.89-6.7,11.3c-5.53,3.35-13.8,4.36-21.51,4.36s-15.9-1.01-21.51-4.36c-3.98-2.42-6.63-6.16-6.63-11.3Zm10.68,0c0,1.79.94,3.04,2.65,4.05,3.35,1.87,9.27,2.49,14.81,2.49s11.54-.62,14.89-2.49c1.64-1.01,2.65-2.26,2.65-4.05s-1.01-2.96-2.65-3.98c-3.35-1.95-9.27-2.49-14.89-2.49s-11.46.55-14.81,2.49c-1.71,1.01-2.65,2.26-2.65,3.98Zm33.36-16.6v-19.49h-14.42v-9.2h14.42v-12.16h10.68v40.84h-10.68Z"/>
  <path class="cls-2" d="m271.55,360.74v8.11h45.13v8.81h-22.99v5.53h27.05v9.12h-64.38v-9.12h26.73v-5.53h-22.21v-25.88h55.34v8.96h-44.66Zm-11.92,49.57c0-4.83,2.18-8.11,6.16-10.37,5.07-2.81,13.02-3.82,22.84-3.82s17.77,1.01,22.84,3.82c4.05,2.26,6.16,5.53,6.16,10.37s-2.11,8.11-6.16,10.29c-5.07,2.88-13.02,3.9-22.84,3.9s-17.77-1.01-22.84-3.9c-3.97-2.18-6.16-5.45-6.16-10.29Zm10.68,0c0,1.4.7,2.49,2.11,3.2,2.88,1.56,8.26,1.95,16.21,1.95s13.33-.39,16.21-1.95c1.4-.7,2.1-1.79,2.1-3.2s-.7-2.49-2.1-3.27c-2.88-1.48-8.26-1.95-16.21-1.95s-13.33.47-16.21,1.95c-1.4.78-2.11,1.87-2.11,3.27Z"/>
  <path class="cls-2" d="m361.97,390.67v-4.21h-26.89v-8.96h64.38v8.96h-26.97v4.21h22.45v20.58h-44.66v3.35h46.3v8.65h-56.98v-20.58h44.66v-3.35h-44.66v-8.65h22.37Zm-22.37-16.29v-22.6h55.34v22.6h-55.34Zm44.66-14.03h-33.98v5.38h33.98v-5.38Z"/>
  <path class="cls-2" d="m438.35,363c0,12.63,5.77,18.24,14.89,20.97v9.43c-8.57-1.56-16.06-5.69-20.19-11.15-3.9,5.69-11.38,10.21-20.34,11.93v-9.43c9.43-2.81,14.97-9.67,14.97-21.75v-11.69h10.68v11.69Zm-8.65,50.51h43.81v9.27h-54.48v-25.33h10.68v16.06Zm42.56-43.88h9.9v9.27h-9.9v22.22h-10.68v-50.2h10.68v18.71Z"/>
  <path class="cls-2" d="m77.86,332.1v-2.92c-.92.92-3.01,1.38-5.66,1.38h-13.62v-3.66h6.58v-6.18h4.21v6.18h3.63c2.28,0,3.97-.37,4.86-1.17v-21.86h4.21v28.23h-4.21Zm-18.51-25.43h5.63v-3.63h4.21v3.63h5.5v3.69h-5.47c.28,4.06,2.52,6.24,5.93,7.63v3.75c-3.47-.95-6.55-2.98-7.99-5.04-1.35,2.12-4.43,4.27-8.12,5.41v-3.75c3.41-1.48,5.66-3.91,5.9-8h-5.6v-3.69Z"/>
  <path class="cls-2" d="m89.52,327.21h8.02v-12.64h4.21v12.64h12.85v3.66h-25.09v-3.66Zm19.46-19.16h-18.2v-3.69h22.42v9.96c0,3.17-.28,6.55-.77,8.98h-4.18c.43-2.28.74-5.44.74-8.09v-7.16Z"/>
  <path class="cls-2" d="m140.05,309.6v-5.23h4.21v17.28h-8.98v5.57h10.39v3.66h-25.09v-3.66h10.52v-5.57h-9.1v-17.28h4.21v5.23h13.84Zm0,3.69h-13.84v4.67h13.84v-4.67Z"/>
  <path class="cls-2" d="m164.69,330.23h-12.3v-25.86h13.87v3.66h-9.69v18.54h8.95c2.28,0,3.94-.37,4.83-1.14v-21.55h4.21v11.19h4.24v3.63h-4.24v13.41h-4.21v-3.26c-.92.92-2.98,1.38-5.66,1.38Z"/>
  <path class="cls-2" d="m212.7,332.1v-2.92c-.92.92-3.01,1.38-5.66,1.38h-13.62v-3.66h6.58v-6.18h4.21v6.18h3.63c2.28,0,3.97-.37,4.86-1.17v-21.86h4.21v28.23h-4.21Zm-18.51-25.43h5.63v-3.63h4.21v3.63h5.5v3.69h-5.47c.28,4.06,2.52,6.24,5.93,7.63v3.75c-3.47-.95-6.55-2.98-8-5.04-1.35,2.12-4.43,4.27-8.12,5.41v-3.75c3.41-1.48,5.66-3.91,5.9-8h-5.6v-3.69Z"/>
  <path class="cls-2" d="m234.2,308.64c0,4.98,2.31,7.19,5.9,8.27v3.72c-3.38-.61-6.37-2.24-7.96-4.4-1.54,2.25-4.52,4.03-8.02,4.7v-3.72c3.72-1.11,5.87-3.81,5.87-8.58v-4.61h4.21v4.61Zm-7.47,23.58v-9.99h4.21v6.33h17.56v3.66h-21.77Zm17.07-8.55v-11.22h-5.69v-3.63h5.69v-4.95h4.21v19.8h-4.21Z"/>
  <path class="cls-2" d="m255.27,314.52h25.4v3.51h-25.4v-3.51Zm1.29-6.03c0-1.23.46-2.15,1.35-2.83,1.72-1.35,5.17-1.78,10.09-1.78s8.36.43,10.12,1.78c.86.68,1.32,1.6,1.32,2.83s-.46,2.12-1.32,2.83c-1.75,1.35-5.16,1.78-10.12,1.78s-8.36-.43-10.09-1.78c-.89-.71-1.35-1.63-1.35-2.83Zm4.7,20.51h18.27v3.41h-22.48v-8.12h17.62v-1.32h-17.62v-3.41h21.83v8.12h-17.62v1.32Zm-.49-20.51c0,.21.12.43.4.58.83.49,3.14.62,6.83.62s6-.12,6.86-.62c.25-.15.37-.37.37-.58,0-.25-.12-.43-.37-.62-.86-.49-3.17-.61-6.86-.61s-6,.12-6.83.61c-.28.19-.4.37-.4.62Z"/>
  <path class="cls-2" d="m310.1,330.23h-12.3v-25.86h13.87v3.66h-9.69v18.54h8.95c2.28,0,3.94-.37,4.83-1.14v-21.55h4.21v11.19h4.24v3.63h-4.24v13.41h-4.21v-3.26c-.92.92-2.98,1.38-5.66,1.38Z"/>
  <path class="cls-2" d="m343.78,306.83v3.66h-16.05v-3.66h5.9v-3.78h4.21v3.78h5.93Zm-14.91,14.58c0-3.81.95-6.73,3.05-8.24,1.08-.77,2.37-1.17,4-1.17s2.92.4,3.97,1.17c2.12,1.51,3.07,4.43,3.07,8.24s-.95,6.77-3.07,8.27c-1.04.74-2.37,1.14-3.97,1.14s-2.92-.4-4-1.14c-2.09-1.51-3.05-4.46-3.05-8.27Zm4.18,0c0,2.61.31,4.34,1.26,5.2.4.37.92.55,1.6.55s1.17-.18,1.57-.55c.95-.86,1.29-2.58,1.29-5.2s-.34-4.34-1.29-5.2c-.4-.37-.92-.55-1.57-.55s-1.2.18-1.6.55c-.95.86-1.26,2.61-1.26,5.2Zm17.99-6.33h4.24v3.63h-4.24v13.41h-4.21v-28.23h4.21v11.19Z"/>
  <path class="cls-2" d="m359.04,317.13h25.4v3.66h-25.4v-3.66Zm5.99-6.55h17.8v3.66h-22.02v-10.21h4.21v6.55Zm0,17.96h18.11v3.69h-22.32v-9.35h4.21v5.66Z"/>
  <path class="cls-2" d="m411.45,310.55v-2.52h-9.72v-3.66h13.9v5.69c0,10.73-3.87,17.96-14.05,20.51v-4c7.01-2.03,9.87-7.69,9.87-16.02Zm13.01,21.55h-4.21v-28.23h4.21v28.23Z"/>
  <path class="cls-2" d="m432.3,311.13c0-2.64.98-4.67,2.61-5.9,1.26-.98,2.92-1.51,4.86-1.51s3.6.52,4.86,1.51c1.23.92,2.09,2.28,2.43,4.03h4.27v-5.38h4.21v15.04h-4.21v-6.03h-4.24c-.34,1.81-1.2,3.23-2.46,4.18-1.26.98-2.92,1.51-4.86,1.51s-3.6-.52-4.86-1.51c-1.63-1.26-2.61-3.26-2.61-5.93Zm19.03,8.79h4.21v12.48h-21.28v-12.48h4.21v2.95h12.85v-2.95Zm-14.91-8.79c0,1.32.4,2.37,1.14,3.04.58.49,1.32.8,2.21.8s1.66-.31,2.21-.8c.74-.68,1.14-1.72,1.14-3.04s-.4-2.37-1.14-3.01c-.55-.49-1.32-.8-2.21-.8s-1.63.31-2.21.8c-.74.65-1.14,1.72-1.14,3.01Zm2.06,15.34v2.34h12.85v-2.34h-12.85Z"/>
</svg>